<?xml version="1.0" encoding="UTF-8" standalone="no"?>
<svg
   xmlns:dc="http://purl.org/dc/elements/1.1/"
   xmlns:cc="http://creativecommons.org/ns#"
   xmlns:rdf="http://www.w3.org/1999/02/22-rdf-syntax-ns#"
   xmlns:svg="http://www.w3.org/2000/svg"
   xmlns="http://www.w3.org/2000/svg"
   version="1.1"
   id="svg2"
   width="42.61142"
   height="33.999771"
   viewBox="0 0 42.61142 33.999771">
  <metadata
     id="metadata8">
    <rdf:RDF>
      <cc:Work
         rdf:about="">
        <dc:format>image/svg+xml</dc:format>
        <dc:type
           rdf:resource="http://purl.org/dc/dcmitype/StillImage" />
        <dc:title></dc:title>
      </cc:Work>
    </rdf:RDF>
  </metadata>
  <defs
     id="defs6" />
  <g
     transform="translate(-42.447134,-56.545938)"
     id="layer2" />
  <g
     transform="translate(-42.447134,-56.545938)"
     id="layer1">
    <g
       id="g4523"
       transform="translate(-0.25190667,0.41413245)">
      <path
         id="path14"
         d="m 44.338983,63.830509 c 9.739277,-11.115746 31.242689,-9.542303 39.932203,0.542373 1.756622,2.038659 1.214692,6.601985 -1.084745,8 -1.441652,0.876495 -34.907553,1.636885 -37.656198,-0.20339 -4.110494,-2.752066 -3.041661,-6.227062 -1.19126,-8.338983 z"
         style="fill:#ec6830;fill-opacity:1;stroke:none;stroke-width:1px;stroke-linecap:butt;stroke-linejoin:miter;stroke-opacity:1" />
      <path
         id="path4516"
         d="m 62.350703,73.302372 c -0.237288,-1.050847 0.157772,-1.743049 1.242518,-1.675252 1.084746,0.0678 5.747387,0.14514 7.118644,0.644067 1.928199,0.701569 7.675587,0.558449 9.268808,-0.01782 4.354078,-1.610435 7.170646,-2.07927 -0.862028,3.780534 0,0 1.050847,10.576274 0.406779,12.542374 -0.644068,1.9661 -3.627118,2.23728 -4.847457,-0.1695 C 73.457628,85.999995 73.898306,76.64407 73.898306,76.64407 74.415358,72.397383 66.537674,73.441276 62.350703,73.302372 Z"
         style="fill:#ffffff;fill-opacity:0.98507463;stroke:none;stroke-width:1px;stroke-linecap:butt;stroke-linejoin:miter;stroke-opacity:1" />
      <path
         id="path4518"
         d="M 81.627119,77.355933 Z"
         style="fill:none;stroke:#000000;stroke-width:1px;stroke-linecap:butt;stroke-linejoin:miter;stroke-opacity:1" />
    </g>
  </g>
</svg>
